<?xml version="1.0" encoding="utf-8" standalone="no"?>
<!DOCTYPE svg PUBLIC "-//W3C//DTD SVG 1.1//EN"
  "http://www.w3.org/Graphics/SVG/1.1/DTD/svg11.dtd">
<svg xmlns:xlink="http://www.w3.org/1999/xlink" width="646.601932pt" height="385.996875pt" viewBox="0 0 646.601932 385.996875" xmlns="http://www.w3.org/2000/svg" version="1.1">
 <metadata>
  <rdf:RDF xmlns:dc="http://purl.org/dc/elements/1.1/" xmlns:cc="http://creativecommons.org/ns#" xmlns:rdf="http://www.w3.org/1999/02/22-rdf-syntax-ns#">
   <cc:Work>
    <dc:type rdf:resource="http://purl.org/dc/dcmitype/StillImage"/>
    <dc:date>2026-06-09T19:23:53.923577</dc:date>
    <dc:format>image/svg+xml</dc:format>
    <dc:creator>
     <cc:Agent>
      <dc:title>Matplotlib v3.10.9, https://matplotlib.org/</dc:title>
     </cc:Agent>
    </dc:creator>
   </cc:Work>
  </rdf:RDF>
 </metadata>
 <defs>
  <style type="text/css">*{stroke-linejoin: round; stroke-linecap: butt}</style>
 </defs>
 <g id="figure_1">
  <g id="patch_1">
   <path d="M -0 385.996875 
L 646.601932 385.996875 
L 646.601932 0 
L -0 0 
z
" style="fill: #f4f1ea"/>
  </g>
  <g id="axes_1">
   <g id="patch_2">
    <path d="M 87.3 292.909188 
L 617.4 292.909188 
L 617.4 38.317188 
L 87.3 38.317188 
z
" style="fill: #f4f1ea"/>
   </g>
   <g id="FillBetweenPolyCollection_1">
    <defs>
     <path id="mb4c914d4a8" d="M 111.395455 -104.660051 
L 111.395455 -180.232767 
L 129.93042 -198.419062 
L 148.465385 -205.955991 
L 167.00035 -206.344888 
L 185.535315 -195.454467 
L 204.07028 -204.899333 
L 222.605245 -216.784104 
L 241.14021 -210.374781 
L 259.675175 -213.070265 
L 278.21014 -224.518914 
L 296.745105 -226.933788 
L 315.28007 -234.710038 
L 333.815035 -247.260503 
L 352.35 -234.2663 
L 370.884965 -222.280784 
L 389.41993 -228.408401 
L 407.954895 -224.337789 
L 426.48986 -214.751104 
L 445.024825 -213.195593 
L 463.55979 -233.254615 
L 482.094755 -262.080202 
L 500.62972 -264.156527 
L 519.164685 -272.043807 
L 537.69965 -303.229771 
L 556.234615 -334.557779 
L 574.76958 -334.537725 
L 593.304545 -336.107324 
L 593.304545 -104.660051 
L 593.304545 -104.660051 
L 574.76958 -104.660051 
L 556.234615 -104.660051 
L 537.69965 -104.660051 
L 519.164685 -104.660051 
L 500.62972 -104.660051 
L 482.094755 -104.660051 
L 463.55979 -104.660051 
L 445.024825 -104.660051 
L 426.48986 -104.660051 
L 407.954895 -104.660051 
L 389.41993 -104.660051 
L 370.884965 -104.660051 
L 352.35 -104.660051 
L 333.815035 -104.660051 
L 315.28007 -104.660051 
L 296.745105 -104.660051 
L 278.21014 -104.660051 
L 259.675175 -104.660051 
L 241.14021 -104.660051 
L 222.605245 -104.660051 
L 204.07028 -104.660051 
L 185.535315 -104.660051 
L 167.00035 -104.660051 
L 148.465385 -104.660051 
L 129.93042 -104.660051 
L 111.395455 -104.660051 
z
" style="stroke: #3b4d63; stroke-opacity: 0.12"/>
    </defs>
    <g clip-path="url(#pbc61a06225)">
     <use xlink:href="#mb4c914d4a8" x="0" y="385.996875" style="fill: #3b4d63; fill-opacity: 0.12; stroke: #3b4d63; stroke-opacity: 0.12"/>
    </g>
   </g>
   <g id="matplotlib.axis_1">
    <g id="xtick_1">
     <g id="line2d_1"/>
     <g id="text_1">
      <text style="font-size: 11px; font-family: 'DejaVu Sans'; text-anchor: middle; fill: #696762" x="132.578272" y="304.767469" transform="rotate(-0 132.578272 304.767469)">Sep 2025</text>
     </g>
    </g>
    <g id="xtick_2">
     <g id="line2d_2"/>
     <g id="text_2">
      <text style="font-size: 11px; font-family: 'DejaVu Sans'; text-anchor: middle; fill: #696762" x="212.013836" y="304.767469" transform="rotate(-0 212.013836 304.767469)">Oct 2025</text>
     </g>
    </g>
    <g id="xtick_3">
     <g id="line2d_3"/>
     <g id="text_3">
      <text style="font-size: 11px; font-family: 'DejaVu Sans'; text-anchor: middle; fill: #696762" x="294.097253" y="304.767469" transform="rotate(-0 294.097253 304.767469)">Nov 2025</text>
     </g>
    </g>
    <g id="xtick_4">
     <g id="line2d_4"/>
     <g id="text_4">
      <text style="font-size: 11px; font-family: 'DejaVu Sans'; text-anchor: middle; fill: #696762" x="373.532817" y="304.767469" transform="rotate(-0 373.532817 304.767469)">Dec 2025</text>
     </g>
    </g>
    <g id="xtick_5">
     <g id="line2d_5"/>
     <g id="text_5">
      <text style="font-size: 11px; font-family: 'DejaVu Sans'; text-anchor: middle; fill: #696762" x="455.616234" y="304.767469" transform="rotate(-0 455.616234 304.767469)">Jan 2026</text>
     </g>
    </g>
    <g id="xtick_6">
     <g id="line2d_6"/>
     <g id="text_6">
      <text style="font-size: 11px; font-family: 'DejaVu Sans'; text-anchor: middle; fill: #696762" x="537.69965" y="304.767469" transform="rotate(-0 537.69965 304.767469)">Feb 2026</text>
     </g>
    </g>
    <g id="xtick_7">
     <g id="line2d_7"/>
     <g id="text_7">
      <text style="font-size: 11px; font-family: 'DejaVu Sans'; text-anchor: middle; fill: #696762" x="611.83951" y="304.767469" transform="rotate(-0 611.83951 304.767469)">Mar 2026</text>
     </g>
    </g>
   </g>
   <g id="matplotlib.axis_2">
    <g id="ytick_1">
     <g id="line2d_8">
      <path d="M 87.3 281.336824 
L 617.4 281.336824 
" clip-path="url(#pbc61a06225)" style="fill: none; stroke: #d9d5cb; stroke-opacity: 0.8; stroke-width: 0.8; stroke-linecap: square"/>
     </g>
     <g id="line2d_9"/>
     <g id="text_8">
      <text style="font-size: 11px; font-family: 'DejaVu Sans'; text-anchor: end; fill: #696762" x="83.8" y="285.515964" transform="rotate(-0 83.8 285.515964)">0T</text>
     </g>
    </g>
    <g id="ytick_2">
     <g id="line2d_10">
      <path d="M 87.3 234.529873 
L 617.4 234.529873 
" clip-path="url(#pbc61a06225)" style="fill: none; stroke: #d9d5cb; stroke-opacity: 0.8; stroke-width: 0.8; stroke-linecap: square"/>
     </g>
     <g id="line2d_11"/>
     <g id="text_9">
      <text style="font-size: 11px; font-family: 'DejaVu Sans'; text-anchor: end; fill: #696762" x="83.8" y="238.709013" transform="rotate(-0 83.8 238.709013)">2T</text>
     </g>
    </g>
    <g id="ytick_3">
     <g id="line2d_12">
      <path d="M 87.3 187.722922 
L 617.4 187.722922 
" clip-path="url(#pbc61a06225)" style="fill: none; stroke: #d9d5cb; stroke-opacity: 0.8; stroke-width: 0.8; stroke-linecap: square"/>
     </g>
     <g id="line2d_13"/>
     <g id="text_10">
      <text style="font-size: 11px; font-family: 'DejaVu Sans'; text-anchor: end; fill: #696762" x="83.8" y="191.902062" transform="rotate(-0 83.8 191.902062)">4T</text>
     </g>
    </g>
    <g id="ytick_4">
     <g id="line2d_14">
      <path d="M 87.3 140.91597 
L 617.4 140.91597 
" clip-path="url(#pbc61a06225)" style="fill: none; stroke: #d9d5cb; stroke-opacity: 0.8; stroke-width: 0.8; stroke-linecap: square"/>
     </g>
     <g id="line2d_15"/>
     <g id="text_11">
      <text style="font-size: 11px; font-family: 'DejaVu Sans'; text-anchor: end; fill: #696762" x="83.8" y="145.095111" transform="rotate(-0 83.8 145.095111)">6T</text>
     </g>
    </g>
    <g id="ytick_5">
     <g id="line2d_16">
      <path d="M 87.3 94.109019 
L 617.4 94.109019 
" clip-path="url(#pbc61a06225)" style="fill: none; stroke: #d9d5cb; stroke-opacity: 0.8; stroke-width: 0.8; stroke-linecap: square"/>
     </g>
     <g id="line2d_17"/>
     <g id="text_12">
      <text style="font-size: 11px; font-family: 'DejaVu Sans'; text-anchor: end; fill: #696762" x="83.8" y="98.28816" transform="rotate(-0 83.8 98.28816)">8T</text>
     </g>
    </g>
    <g id="ytick_6">
     <g id="line2d_18">
      <path d="M 87.3 47.302068 
L 617.4 47.302068 
" clip-path="url(#pbc61a06225)" style="fill: none; stroke: #d9d5cb; stroke-opacity: 0.8; stroke-width: 0.8; stroke-linecap: square"/>
     </g>
     <g id="line2d_19"/>
     <g id="text_13">
      <text style="font-size: 11px; font-family: 'DejaVu Sans'; text-anchor: end; fill: #696762" x="83.8" y="51.481209" transform="rotate(-0 83.8 51.481209)">10T</text>
     </g>
    </g>
    <g id="text_14">
     <text style="font-size: 11px; font-family: 'DejaVu Sans'; text-anchor: middle; fill: #696762" x="56.79625" y="165.613187" transform="rotate(-90 56.79625 165.613187)">Observed routed tokens</text>
    </g>
   </g>
   <g id="line2d_20">
    <path d="M 111.395455 205.764108 
L 129.93042 187.577813 
L 148.465385 180.040884 
L 167.00035 179.651987 
L 185.535315 190.542408 
L 204.07028 181.097542 
L 222.605245 169.212771 
L 241.14021 175.622094 
L 259.675175 172.92661 
L 278.21014 161.477961 
L 296.745105 159.063087 
L 315.28007 151.286837 
L 333.815035 138.736372 
L 352.35 151.730575 
L 370.884965 163.716091 
L 389.41993 157.588474 
L 407.954895 161.659086 
L 426.48986 171.245771 
L 445.024825 172.801282 
L 463.55979 152.74226 
L 482.094755 123.916673 
L 500.62972 121.840348 
L 519.164685 113.953068 
L 537.69965 82.767104 
L 556.234615 51.439096 
L 574.76958 51.45915 
L 593.304545 49.889551 
" clip-path="url(#pbc61a06225)" style="fill: none; stroke: #3b4d63; stroke-width: 2.7; stroke-linecap: square"/>
   </g>
   <g id="patch_3">
    <path d="M 87.3 292.909188 
L 87.3 38.317187 
" style="fill: none; stroke: #d9d5cb; stroke-width: 0.8; stroke-linejoin: miter; stroke-linecap: square"/>
   </g>
   <g id="patch_4">
    <path d="M 87.3 292.909188 
L 617.4 292.909188 
" style="fill: none; stroke: #d9d5cb; stroke-width: 0.8; stroke-linejoin: miter; stroke-linecap: square"/>
   </g>
   <g id="PathCollection_1">
    <defs>
     <path id="m7be8752fad" d="M 0 2.915476 
C 0.773193 2.915476 1.514823 2.608283 2.061553 2.061553 
C 2.608283 1.514823 2.915476 0.773193 2.915476 0 
C 2.915476 -0.773193 2.608283 -1.514823 2.061553 -2.061553 
C 1.514823 -2.608283 0.773193 -2.915476 0 -2.915476 
C -0.773193 -2.915476 -1.514823 -2.608283 -2.061553 -2.061553 
C -2.608283 -1.514823 -2.915476 -0.773193 -2.915476 0 
C -2.915476 0.773193 -2.608283 1.514823 -2.061553 2.061553 
C -1.514823 2.608283 -0.773193 2.915476 0 2.915476 
z
" style="stroke: #3b4d63"/>
    </defs>
    <g clip-path="url(#pbc61a06225)">
     <use xlink:href="#m7be8752fad" x="111.395455" y="205.764108" style="fill: #3b4d63; stroke: #3b4d63"/>
     <use xlink:href="#m7be8752fad" x="593.304545" y="49.889551" style="fill: #3b4d63; stroke: #3b4d63"/>
    </g>
   </g>
   <g id="text_15">
    <text style="font-size: 10px; font-family: 'DejaVu Sans'; text-anchor: start; fill: #1f1f1c" x="121.395455" y="193.764108" transform="rotate(-0 121.395455 193.764108)">3.23T</text>
   </g>
   <g id="text_16">
    <text style="font-size: 10px; font-family: 'DejaVu Sans'; text-anchor: start; fill: #1f1f1c" x="545.304545" y="37.889551" transform="rotate(-0 545.304545 37.889551)">9.89T</text>
   </g>
   <g id="text_17">
    <text style="font-size: 18px; font-family: 'DejaVu Sans'; text-anchor: start; fill: #1f1f1c" x="87.3" y="22.317187" transform="rotate(-0 87.3 22.317187)">Weekly OpenRouter-routed token volume</text>
   </g>
  </g>
  <g id="text_18">
   <text style="font-size: 10px; font-family: 'DejaVu Sans'; text-anchor: start; fill: #696762" x="8.64" y="375.277188" transform="rotate(-0 8.64 375.277188)">Observed text-to-text routed usage in the research panel.</text>
  </g>
 </g>
 <defs>
  <clipPath id="pbc61a06225">
   <rect x="87.3" y="38.317187" width="530.1" height="254.592"/>
  </clipPath>
 </defs>
</svg>
