<?xml version="1.0" encoding="utf-8" standalone="no"?>
<!DOCTYPE svg PUBLIC "-//W3C//DTD SVG 1.1//EN"
  "http://www.w3.org/Graphics/SVG/1.1/DTD/svg11.dtd">
<svg xmlns:xlink="http://www.w3.org/1999/xlink" width="695.575639pt" height="424.876875pt" viewBox="0 0 695.575639 424.876875" xmlns="http://www.w3.org/2000/svg" version="1.1">
 <metadata>
  <rdf:RDF xmlns:dc="http://purl.org/dc/elements/1.1/" xmlns:cc="http://creativecommons.org/ns#" xmlns:rdf="http://www.w3.org/1999/02/22-rdf-syntax-ns#">
   <cc:Work>
    <dc:type rdf:resource="http://purl.org/dc/dcmitype/StillImage"/>
    <dc:date>2026-06-09T19:23:54.173987</dc:date>
    <dc:format>image/svg+xml</dc:format>
    <dc:creator>
     <cc:Agent>
      <dc:title>Matplotlib v3.10.9, https://matplotlib.org/</dc:title>
     </cc:Agent>
    </dc:creator>
   </cc:Work>
  </rdf:RDF>
 </metadata>
 <defs>
  <style type="text/css">*{stroke-linejoin: round; stroke-linecap: butt}</style>
 </defs>
 <g id="figure_1">
  <g id="patch_1">
   <path d="M -0 424.876875 
L 695.575639 424.876875 
L 695.575639 0 
L -0 0 
z
" style="fill: #f4f1ea"/>
  </g>
  <g id="axes_1">
   <g id="patch_2">
    <path d="M 87.3 359.869187 
L 617.4 359.869187 
L 617.4 38.317187 
L 87.3 38.317187 
z
" style="fill: #f4f1ea"/>
   </g>
   <g id="PathCollection_1">
    <path d="M 481.910407 220.853733 
C 483.249292 220.853733 484.533521 220.321788 485.480256 219.375053 
C 486.426991 218.428318 486.958936 217.144089 486.958936 215.805204 
C 486.958936 214.466318 486.426991 213.182089 485.480256 212.235354 
C 484.533521 211.288619 483.249292 210.756674 481.910407 210.756674 
C 480.571521 210.756674 479.287292 211.288619 478.340557 212.235354 
C 477.393822 213.182089 476.861877 214.466318 476.861877 215.805204 
C 476.861877 217.144089 477.393822 218.428318 478.340557 219.375053 
C 479.287292 220.321788 480.571521 220.853733 481.910407 220.853733 
z
" clip-path="url(#pe3d11f877a)" style="fill: #2f7f73; fill-opacity: 0.78; stroke: #f4f1ea; stroke-opacity: 0.78; stroke-width: 0.8"/>
    <path d="M 436.426141 273.151628 
C 437.627673 273.151628 438.780155 272.674254 439.629767 271.824643 
C 440.479378 270.975031 440.956752 269.822549 440.956752 268.621016 
C 440.956752 267.419484 440.479378 266.267002 439.629767 265.41739 
C 438.780155 264.567779 437.627673 264.090405 436.426141 264.090405 
C 435.224608 264.090405 434.072126 264.567779 433.222514 265.41739 
C 432.372903 266.267002 431.895529 267.419484 431.895529 268.621016 
C 431.895529 269.822549 432.372903 270.975031 433.222514 271.824643 
C 434.072126 272.674254 435.224608 273.151628 436.426141 273.151628 
z
" clip-path="url(#pe3d11f877a)" style="fill: #2f7f73; fill-opacity: 0.78; stroke: #f4f1ea; stroke-opacity: 0.78; stroke-width: 0.8"/>
    <path d="M 492.242062 222.726175 
C 493.876227 222.726175 495.443681 222.076914 496.59921 220.921385 
C 497.75474 219.765856 498.404 218.198402 498.404 216.564237 
C 498.404 214.930072 497.75474 213.362618 496.59921 212.207088 
C 495.443681 211.051559 493.876227 210.402299 492.242062 210.402299 
C 490.607897 210.402299 489.040443 211.051559 487.884914 212.207088 
C 486.729384 213.362618 486.080124 214.930072 486.080124 216.564237 
C 486.080124 218.198402 486.729384 219.765856 487.884914 220.921385 
C 489.040443 222.076914 490.607897 222.726175 492.242062 222.726175 
z
" clip-path="url(#pe3d11f877a)" style="fill: #2f7f73; fill-opacity: 0.78; stroke: #f4f1ea; stroke-opacity: 0.78; stroke-width: 0.8"/>
    <path d="M 400.729129 254.865623 
C 401.942378 254.865623 403.106099 254.383594 403.963996 253.525697 
C 404.821892 252.6678 405.303921 251.504079 405.303921 250.29083 
C 405.303921 249.077581 404.821892 247.91386 403.963996 247.055963 
C 403.106099 246.198067 401.942378 245.716038 400.729129 245.716038 
C 399.51588 245.716038 398.352159 246.198067 397.494262 247.055963 
C 396.636365 247.91386 396.154336 249.077581 396.154336 250.29083 
C 396.154336 251.504079 396.636365 252.6678 397.494262 253.525697 
C 398.352159 254.383594 399.51588 254.865623 400.729129 254.865623 
z
" clip-path="url(#pe3d11f877a)" style="fill: #2f7f73; fill-opacity: 0.78; stroke: #f4f1ea; stroke-opacity: 0.78; stroke-width: 0.8"/>
    <path d="M 329.335105 231.538211 
C 330.543543 231.538211 331.702649 231.058094 332.557144 230.203599 
C 333.411639 229.349105 333.891756 228.189998 333.891756 226.98156 
C 333.891756 225.773123 333.411639 224.614016 332.557144 223.759522 
C 331.702649 222.905027 330.543543 222.42491 329.335105 222.42491 
C 328.126667 222.42491 326.967561 222.905027 326.113067 223.759522 
C 325.258572 224.614016 324.778454 225.773123 324.778454 226.98156 
C 324.778454 228.189998 325.258572 229.349105 326.113067 230.203599 
C 326.967561 231.058094 328.126667 231.538211 329.335105 231.538211 
z
" clip-path="url(#pe3d11f877a)" style="fill: #2f7f73; fill-opacity: 0.78; stroke: #f4f1ea; stroke-opacity: 0.78; stroke-width: 0.8"/>
    <path d="M 314.304785 254.811661 
C 315.518115 254.811661 316.681915 254.3296 317.539869 253.471645 
C 318.397824 252.613691 318.879885 251.449891 318.879885 250.23656 
C 318.879885 249.02323 318.397824 247.85943 317.539869 247.001476 
C 316.681915 246.143521 315.518115 245.66146 314.304785 245.66146 
C 313.091454 245.66146 311.927654 246.143521 311.0697 247.001476 
C 310.211745 247.85943 309.729684 249.02323 309.729684 250.23656 
C 309.729684 251.449891 310.211745 252.613691 311.0697 253.471645 
C 311.927654 254.3296 313.091454 254.811661 314.304785 254.811661 
z
" clip-path="url(#pe3d11f877a)" style="fill: #2f7f73; fill-opacity: 0.78; stroke: #f4f1ea; stroke-opacity: 0.78; stroke-width: 0.8"/>
    <path d="M 111.395455 349.824556 
C 112.607796 349.824556 113.770645 349.342887 114.6279 348.485633 
C 115.485154 347.628378 115.966823 346.465528 115.966823 345.253187 
C 115.966823 344.040847 115.485154 342.877997 114.6279 342.020742 
C 113.770645 341.163488 112.607796 340.681819 111.395455 340.681819 
C 110.183114 340.681819 109.020264 341.163488 108.163009 342.020742 
C 107.305755 342.877997 106.824086 344.040847 106.824086 345.253187 
C 106.824086 346.465528 107.305755 347.628378 108.163009 348.485633 
C 109.020264 349.342887 110.183114 349.824556 111.395455 349.824556 
z
" clip-path="url(#pe3d11f877a)" style="fill: #2f7f73; fill-opacity: 0.78; stroke: #f4f1ea; stroke-opacity: 0.78; stroke-width: 0.8"/>
    <path d="M 438.304931 210.28656 
C 439.623156 210.28656 440.887568 209.762824 441.819694 208.830698 
C 442.75182 207.898571 443.275557 206.63416 443.275557 205.315934 
C 443.275557 203.997709 442.75182 202.733297 441.819694 201.801171 
C 440.887568 200.869044 439.623156 200.345308 438.304931 200.345308 
C 436.986705 200.345308 435.722293 200.869044 434.790167 201.801171 
C 433.858041 202.733297 433.334304 203.997709 433.334304 205.315934 
C 433.334304 206.63416 433.858041 207.898571 434.790167 208.830698 
C 435.722293 209.762824 436.986705 210.28656 438.304931 210.28656 
z
" clip-path="url(#pe3d11f877a)" style="fill: #2f7f73; fill-opacity: 0.78; stroke: #f4f1ea; stroke-opacity: 0.78; stroke-width: 0.8"/>
    <path d="M 516.282208 182.086354 
C 517.68533 182.086354 519.031173 181.528888 520.02333 180.53673 
C 521.015487 179.544573 521.572953 178.19873 521.572953 176.795608 
C 521.572953 175.392486 521.015487 174.046643 520.02333 173.054486 
C 519.031173 172.062329 517.68533 171.504862 516.282208 171.504862 
C 514.879085 171.504862 513.533243 172.062329 512.541085 173.054486 
C 511.548928 174.046643 510.991462 175.392486 510.991462 176.795608 
C 510.991462 178.19873 511.548928 179.544573 512.541085 180.53673 
C 513.533243 181.528888 514.879085 182.086354 516.282208 182.086354 
z
" clip-path="url(#pe3d11f877a)" style="fill: #2f7f73; fill-opacity: 0.78; stroke: #f4f1ea; stroke-opacity: 0.78; stroke-width: 0.8"/>
    <path d="M 449.577671 264.017967 
C 450.777338 264.017967 451.928031 263.541335 452.776323 262.693043 
C 453.624615 261.84475 454.101248 260.694057 454.101248 259.494391 
C 454.101248 258.294724 453.624615 257.144032 452.776323 256.295739 
C 451.928031 255.447447 450.777338 254.970814 449.577671 254.970814 
C 448.378005 254.970814 447.227312 255.447447 446.37902 256.295739 
C 445.530727 257.144032 445.054095 258.294724 445.054095 259.494391 
C 445.054095 260.694057 445.530727 261.84475 446.37902 262.693043 
C 447.227312 263.541335 448.378005 264.017967 449.577671 264.017967 
z
" clip-path="url(#pe3d11f877a)" style="fill: #2f7f73; fill-opacity: 0.78; stroke: #f4f1ea; stroke-opacity: 0.78; stroke-width: 0.8"/>
    <path d="M 530.476805 189.207346 
C 531.860525 189.207346 533.187758 188.657588 534.166196 187.67915 
C 535.144633 186.700713 535.694391 185.37348 535.694391 183.98976 
C 535.694391 182.60604 535.144633 181.278808 534.166196 180.30037 
C 533.187758 179.321933 531.860525 178.772175 530.476805 178.772175 
C 529.093086 178.772175 527.765853 179.321933 526.787415 180.30037 
C 525.808978 181.278808 525.25922 182.60604 525.25922 183.98976 
C 525.25922 185.37348 525.808978 186.700713 526.787415 187.67915 
C 527.765853 188.657588 529.093086 189.207346 530.476805 189.207346 
z
" clip-path="url(#pe3d11f877a)" style="fill: #2f7f73; fill-opacity: 0.78; stroke: #f4f1ea; stroke-opacity: 0.78; stroke-width: 0.8"/>
   </g>
   <g id="PathCollection_2">
    <path d="M 519.694295 86.940289 
C 521.52087 86.940289 523.272879 86.214583 524.564462 84.923 
C 525.856045 83.631416 526.581751 81.879407 526.581751 80.052833 
C 526.581751 78.226258 525.856045 76.47425 524.564462 75.182666 
C 523.272879 73.891083 521.52087 73.165377 519.694295 73.165377 
C 517.867721 73.165377 516.115712 73.891083 514.824129 75.182666 
C 513.532545 76.47425 512.80684 78.226258 512.80684 80.052833 
C 512.80684 81.879407 513.532545 83.631416 514.824129 84.923 
C 516.115712 86.214583 517.867721 86.940289 519.694295 86.940289 
z
" clip-path="url(#pe3d11f877a)" style="fill: #c96f4d; fill-opacity: 0.78; stroke: #f4f1ea; stroke-opacity: 0.78; stroke-width: 0.8"/>
    <path d="M 593.304545 58.263239 
C 594.718092 58.263239 596.073933 57.701631 597.073461 56.702103 
C 598.072989 55.702575 598.634597 54.346734 598.634597 52.933187 
C 598.634597 51.519641 598.072989 50.1638 597.073461 49.164272 
C 596.073933 48.164744 594.718092 47.603136 593.304545 47.603136 
C 591.890999 47.603136 590.535158 48.164744 589.53563 49.164272 
C 588.536102 50.1638 587.974494 51.519641 587.974494 52.933187 
C 587.974494 54.346734 588.536102 55.702575 589.53563 56.702103 
C 590.535158 57.701631 591.890999 58.263239 593.304545 58.263239 
z
" clip-path="url(#pe3d11f877a)" style="fill: #c96f4d; fill-opacity: 0.78; stroke: #f4f1ea; stroke-opacity: 0.78; stroke-width: 0.8"/>
    <path d="M 454.656295 137.36592 
C 455.933331 137.36592 457.158234 136.858548 458.061234 135.955548 
C 458.964235 135.052548 459.471606 133.827644 459.471606 132.550609 
C 459.471606 131.273574 458.964235 130.04867 458.061234 129.14567 
C 457.158234 128.24267 455.933331 127.735298 454.656295 127.735298 
C 453.37926 127.735298 452.154356 128.24267 451.251356 129.14567 
C 450.348356 130.04867 449.840984 131.273574 449.840984 132.550609 
C 449.840984 133.827644 450.348356 135.052548 451.251356 135.955548 
C 452.154356 136.858548 453.37926 137.36592 454.656295 137.36592 
z
" clip-path="url(#pe3d11f877a)" style="fill: #c96f4d; fill-opacity: 0.78; stroke: #f4f1ea; stroke-opacity: 0.78; stroke-width: 0.8"/>
    <path d="M 569.630127 106.508663 
C 571.320315 106.508663 572.941505 105.837144 574.136648 104.642001 
C 575.331791 103.446858 576.00331 101.825668 576.00331 100.13548 
C 576.00331 98.445293 575.331791 96.824103 574.136648 95.62896 
C 572.941505 94.433816 571.320315 93.762298 569.630127 93.762298 
C 567.939939 93.762298 566.31875 94.433816 565.123606 95.62896 
C 563.928463 96.824103 563.256944 98.445293 563.256944 100.13548 
C 563.256944 101.825668 563.928463 103.446858 565.123606 104.642001 
C 566.31875 105.837144 567.939939 106.508663 569.630127 106.508663 
z
" clip-path="url(#pe3d11f877a)" style="fill: #c96f4d; fill-opacity: 0.78; stroke: #f4f1ea; stroke-opacity: 0.78; stroke-width: 0.8"/>
    <path d="M 490.01996 180.226104 
C 492.116197 180.226104 494.126861 179.393259 495.609125 177.910996 
C 497.091389 176.428732 497.924233 174.418068 497.924233 172.321831 
C 497.924233 170.225593 497.091389 168.214929 495.609125 166.732665 
C 494.126861 165.250402 492.116197 164.417558 490.01996 164.417558 
C 487.923722 164.417558 485.913059 165.250402 484.430795 166.732665 
C 482.948531 168.214929 482.115687 170.225593 482.115687 172.321831 
C 482.115687 174.418068 482.948531 176.428732 484.430795 177.910996 
C 485.913059 179.393259 487.923722 180.226104 490.01996 180.226104 
z
" clip-path="url(#pe3d11f877a)" style="fill: #c96f4d; fill-opacity: 0.78; stroke: #f4f1ea; stroke-opacity: 0.78; stroke-width: 0.8"/>
    <path d="M 458.985027 128.838503 
C 460.504046 128.838503 461.961055 128.23499 463.035164 127.160881 
C 464.109273 126.086772 464.712786 124.629763 464.712786 123.110744 
C 464.712786 121.591724 464.109273 120.134715 463.035164 119.060606 
C 461.961055 117.986497 460.504046 117.382985 458.985027 117.382985 
C 457.466007 117.382985 456.008998 117.986497 454.934889 119.060606 
C 453.86078 120.134715 453.257268 121.591724 453.257268 123.110744 
C 453.257268 124.629763 453.86078 126.086772 454.934889 127.160881 
C 456.008998 128.23499 457.466007 128.838503 458.985027 128.838503 
z
" clip-path="url(#pe3d11f877a)" style="fill: #c96f4d; fill-opacity: 0.78; stroke: #f4f1ea; stroke-opacity: 0.78; stroke-width: 0.8"/>
    <path d="M 374.103499 211.418422 
C 375.649817 211.418422 377.133009 210.804063 378.226421 209.710652 
C 379.319832 208.61724 379.934191 207.134048 379.934191 205.58773 
C 379.934191 204.041413 379.319832 202.558221 378.226421 201.464809 
C 377.133009 200.371398 375.649817 199.757039 374.103499 199.757039 
C 372.557182 199.757039 371.07399 200.371398 369.980578 201.464809 
C 368.887167 202.558221 368.272808 204.041413 368.272808 205.58773 
C 368.272808 207.134048 368.887167 208.61724 369.980578 209.710652 
C 371.07399 210.804063 372.557182 211.418422 374.103499 211.418422 
z
" clip-path="url(#pe3d11f877a)" style="fill: #c96f4d; fill-opacity: 0.78; stroke: #f4f1ea; stroke-opacity: 0.78; stroke-width: 0.8"/>
    <path d="M 483.395893 84.585501 
C 484.597971 84.585501 485.750976 84.107911 486.600973 83.257913 
C 487.450971 82.407916 487.928561 81.254911 487.928561 80.052833 
C 487.928561 78.850755 487.450971 77.69775 486.600973 76.847752 
C 485.750976 75.997755 484.597971 75.520165 483.395893 75.520165 
C 482.193815 75.520165 481.04081 75.997755 480.190812 76.847752 
C 479.340815 77.69775 478.863225 78.850755 478.863225 80.052833 
C 478.863225 81.254911 479.340815 82.407916 480.190812 83.257913 
C 481.04081 84.107911 482.193815 84.585501 483.395893 84.585501 
z
" clip-path="url(#pe3d11f877a)" style="fill: #c96f4d; fill-opacity: 0.78; stroke: #f4f1ea; stroke-opacity: 0.78; stroke-width: 0.8"/>
    <path d="M 510.291899 204.535926 
C 512.472905 204.535926 514.564876 203.669403 516.10708 202.1272 
C 517.649283 200.584996 518.515806 198.493025 518.515806 196.312019 
C 518.515806 194.131014 517.649283 192.039043 516.10708 190.496839 
C 514.564876 188.954635 512.472905 188.088112 510.291899 188.088112 
C 508.110894 188.088112 506.018923 188.954635 504.476719 190.496839 
C 502.934515 192.039043 502.067992 194.131014 502.067992 196.312019 
C 502.067992 198.493025 502.934515 200.584996 504.476719 202.1272 
C 506.018923 203.669403 508.110894 204.535926 510.291899 204.535926 
z
" clip-path="url(#pe3d11f877a)" style="fill: #c96f4d; fill-opacity: 0.78; stroke: #f4f1ea; stroke-opacity: 0.78; stroke-width: 0.8"/>
   </g>
   <g id="matplotlib.axis_1">
    <g id="xtick_1">
     <g id="line2d_1"/>
     <g id="text_1">
      <text style="font-size: 11px; font-family: 'DejaVu Sans'; text-anchor: middle; fill: #696762" x="90.728764" y="371.727469" transform="rotate(-0 90.728764 371.727469)">1200</text>
     </g>
    </g>
    <g id="xtick_2">
     <g id="line2d_2"/>
     <g id="text_2">
      <text style="font-size: 11px; font-family: 'DejaVu Sans'; text-anchor: middle; fill: #696762" x="184.668268" y="371.727469" transform="rotate(-0 184.668268 371.727469)">1250</text>
     </g>
    </g>
    <g id="xtick_3">
     <g id="line2d_3"/>
     <g id="text_3">
      <text style="font-size: 11px; font-family: 'DejaVu Sans'; text-anchor: middle; fill: #696762" x="278.607773" y="371.727469" transform="rotate(-0 278.607773 371.727469)">1300</text>
     </g>
    </g>
    <g id="xtick_4">
     <g id="line2d_4"/>
     <g id="text_4">
      <text style="font-size: 11px; font-family: 'DejaVu Sans'; text-anchor: middle; fill: #696762" x="372.547277" y="371.727469" transform="rotate(-0 372.547277 371.727469)">1350</text>
     </g>
    </g>
    <g id="xtick_5">
     <g id="line2d_5"/>
     <g id="text_5">
      <text style="font-size: 11px; font-family: 'DejaVu Sans'; text-anchor: middle; fill: #696762" x="466.486782" y="371.727469" transform="rotate(-0 466.486782 371.727469)">1400</text>
     </g>
    </g>
    <g id="xtick_6">
     <g id="line2d_6"/>
     <g id="text_6">
      <text style="font-size: 11px; font-family: 'DejaVu Sans'; text-anchor: middle; fill: #696762" x="560.426287" y="371.727469" transform="rotate(-0 560.426287 371.727469)">1450</text>
     </g>
    </g>
    <g id="text_7">
     <text style="font-size: 11px; font-family: 'DejaVu Sans'; text-anchor: middle; fill: #696762" x="352.35" y="386.373406" transform="rotate(-0 352.35 386.373406)">LM Arena-style Elo quality proxy</text>
    </g>
   </g>
   <g id="matplotlib.axis_2">
    <g id="ytick_1">
     <g id="line2d_7">
      <path d="M 87.3 289.348352 
L 617.4 289.348352 
" clip-path="url(#pe3d11f877a)" style="fill: none; stroke: #d9d5cb; stroke-opacity: 0.8; stroke-width: 0.8; stroke-linecap: square"/>
     </g>
     <g id="line2d_8"/>
     <g id="text_8">
      <text style="font-size: 11px; font-family: 'DejaVu Sans'; text-anchor: end; fill: #696762" x="83.8" y="293.527492" transform="rotate(-0 83.8 293.527492)">$0.10</text>
     </g>
    </g>
    <g id="ytick_2">
     <g id="line2d_9">
      <path d="M 87.3 182.250324 
L 617.4 182.250324 
" clip-path="url(#pe3d11f877a)" style="fill: none; stroke: #d9d5cb; stroke-opacity: 0.8; stroke-width: 0.8; stroke-linecap: square"/>
     </g>
     <g id="line2d_10"/>
     <g id="text_9">
      <text style="font-size: 11px; font-family: 'DejaVu Sans'; text-anchor: end; fill: #696762" x="83.8" y="186.429464" transform="rotate(-0 83.8 186.429464)">$1.0</text>
     </g>
    </g>
    <g id="ytick_3">
     <g id="line2d_11">
      <path d="M 87.3 75.152296 
L 617.4 75.152296 
" clip-path="url(#pe3d11f877a)" style="fill: none; stroke: #d9d5cb; stroke-opacity: 0.8; stroke-width: 0.8; stroke-linecap: square"/>
     </g>
     <g id="line2d_12"/>
     <g id="text_10">
      <text style="font-size: 11px; font-family: 'DejaVu Sans'; text-anchor: end; fill: #696762" x="83.8" y="79.331436" transform="rotate(-0 83.8 79.331436)">$10</text>
     </g>
    </g>
    <g id="ytick_4">
     <g id="line2d_13">
      <defs>
       <path id="m0be2fdcbc2" d="M 0 0 
L -2 0 
" style="stroke: #696762; stroke-width: 0.6"/>
      </defs>
      <g>
       <use xlink:href="#m0be2fdcbc2" x="87.3" y="345.347634" style="fill: #696762; stroke: #696762; stroke-width: 0.6"/>
      </g>
     </g>
    </g>
    <g id="ytick_5">
     <g id="line2d_14">
      <g>
       <use xlink:href="#m0be2fdcbc2" x="87.3" y="331.966942" style="fill: #696762; stroke: #696762; stroke-width: 0.6"/>
      </g>
     </g>
    </g>
    <g id="ytick_6">
     <g id="line2d_15">
      <g>
       <use xlink:href="#m0be2fdcbc2" x="87.3" y="321.588071" style="fill: #696762; stroke: #696762; stroke-width: 0.6"/>
      </g>
     </g>
    </g>
    <g id="ytick_7">
     <g id="line2d_16">
      <g>
       <use xlink:href="#m0be2fdcbc2" x="87.3" y="313.107915" style="fill: #696762; stroke: #696762; stroke-width: 0.6"/>
      </g>
     </g>
    </g>
    <g id="ytick_8">
     <g id="line2d_17">
      <g>
       <use xlink:href="#m0be2fdcbc2" x="87.3" y="305.938046" style="fill: #696762; stroke: #696762; stroke-width: 0.6"/>
      </g>
     </g>
    </g>
    <g id="ytick_9">
     <g id="line2d_18">
      <g>
       <use xlink:href="#m0be2fdcbc2" x="87.3" y="299.727223" style="fill: #696762; stroke: #696762; stroke-width: 0.6"/>
      </g>
     </g>
    </g>
    <g id="ytick_10">
     <g id="line2d_19">
      <g>
       <use xlink:href="#m0be2fdcbc2" x="87.3" y="294.248889" style="fill: #696762; stroke: #696762; stroke-width: 0.6"/>
      </g>
     </g>
    </g>
    <g id="ytick_11">
     <g id="line2d_20">
      <g>
       <use xlink:href="#m0be2fdcbc2" x="87.3" y="257.108633" style="fill: #696762; stroke: #696762; stroke-width: 0.6"/>
      </g>
     </g>
    </g>
    <g id="ytick_12">
     <g id="line2d_21">
      <g>
       <use xlink:href="#m0be2fdcbc2" x="87.3" y="238.249606" style="fill: #696762; stroke: #696762; stroke-width: 0.6"/>
      </g>
     </g>
    </g>
    <g id="ytick_13">
     <g id="line2d_22">
      <g>
       <use xlink:href="#m0be2fdcbc2" x="87.3" y="224.868914" style="fill: #696762; stroke: #696762; stroke-width: 0.6"/>
      </g>
     </g>
    </g>
    <g id="ytick_14">
     <g id="line2d_23">
      <g>
       <use xlink:href="#m0be2fdcbc2" x="87.3" y="214.490043" style="fill: #696762; stroke: #696762; stroke-width: 0.6"/>
      </g>
     </g>
    </g>
    <g id="ytick_15">
     <g id="line2d_24">
      <g>
       <use xlink:href="#m0be2fdcbc2" x="87.3" y="206.009887" style="fill: #696762; stroke: #696762; stroke-width: 0.6"/>
      </g>
     </g>
    </g>
    <g id="ytick_16">
     <g id="line2d_25">
      <g>
       <use xlink:href="#m0be2fdcbc2" x="87.3" y="198.840018" style="fill: #696762; stroke: #696762; stroke-width: 0.6"/>
      </g>
     </g>
    </g>
    <g id="ytick_17">
     <g id="line2d_26">
      <g>
       <use xlink:href="#m0be2fdcbc2" x="87.3" y="192.629195" style="fill: #696762; stroke: #696762; stroke-width: 0.6"/>
      </g>
     </g>
    </g>
    <g id="ytick_18">
     <g id="line2d_27">
      <g>
       <use xlink:href="#m0be2fdcbc2" x="87.3" y="187.150861" style="fill: #696762; stroke: #696762; stroke-width: 0.6"/>
      </g>
     </g>
    </g>
    <g id="ytick_19">
     <g id="line2d_28">
      <g>
       <use xlink:href="#m0be2fdcbc2" x="87.3" y="150.010605" style="fill: #696762; stroke: #696762; stroke-width: 0.6"/>
      </g>
     </g>
    </g>
    <g id="ytick_20">
     <g id="line2d_29">
      <g>
       <use xlink:href="#m0be2fdcbc2" x="87.3" y="131.151578" style="fill: #696762; stroke: #696762; stroke-width: 0.6"/>
      </g>
     </g>
    </g>
    <g id="ytick_21">
     <g id="line2d_30">
      <g>
       <use xlink:href="#m0be2fdcbc2" x="87.3" y="117.770886" style="fill: #696762; stroke: #696762; stroke-width: 0.6"/>
      </g>
     </g>
    </g>
    <g id="ytick_22">
     <g id="line2d_31">
      <g>
       <use xlink:href="#m0be2fdcbc2" x="87.3" y="107.392015" style="fill: #696762; stroke: #696762; stroke-width: 0.6"/>
      </g>
     </g>
    </g>
    <g id="ytick_23">
     <g id="line2d_32">
      <g>
       <use xlink:href="#m0be2fdcbc2" x="87.3" y="98.911859" style="fill: #696762; stroke: #696762; stroke-width: 0.6"/>
      </g>
     </g>
    </g>
    <g id="ytick_24">
     <g id="line2d_33">
      <g>
       <use xlink:href="#m0be2fdcbc2" x="87.3" y="91.74199" style="fill: #696762; stroke: #696762; stroke-width: 0.6"/>
      </g>
     </g>
    </g>
    <g id="ytick_25">
     <g id="line2d_34">
      <g>
       <use xlink:href="#m0be2fdcbc2" x="87.3" y="85.531167" style="fill: #696762; stroke: #696762; stroke-width: 0.6"/>
      </g>
     </g>
    </g>
    <g id="ytick_26">
     <g id="line2d_35">
      <g>
       <use xlink:href="#m0be2fdcbc2" x="87.3" y="80.052833" style="fill: #696762; stroke: #696762; stroke-width: 0.6"/>
      </g>
     </g>
    </g>
    <g id="ytick_27">
     <g id="line2d_36">
      <g>
       <use xlink:href="#m0be2fdcbc2" x="87.3" y="42.912577" style="fill: #696762; stroke: #696762; stroke-width: 0.6"/>
      </g>
     </g>
    </g>
    <g id="text_11">
     <text style="font-size: 11px; font-family: 'DejaVu Sans'; text-anchor: middle; fill: #696762" x="46.021406" y="199.093187" transform="rotate(-90 46.021406 199.093187)">Blended price per million tokens, log scale</text>
    </g>
   </g>
   <g id="patch_3">
    <path d="M 87.3 359.869187 
L 87.3 38.317187 
" style="fill: none; stroke: #d9d5cb; stroke-width: 0.8; stroke-linejoin: miter; stroke-linecap: square"/>
   </g>
   <g id="patch_4">
    <path d="M 87.3 359.869187 
L 617.4 359.869187 
" style="fill: none; stroke: #d9d5cb; stroke-width: 0.8; stroke-linejoin: miter; stroke-linecap: square"/>
   </g>
   <g id="patch_5">
    <path d="M 516.369005 74.950404 
Q 517.485283 76.663256 518.601561 78.376107 
" style="fill: none; stroke: #d9d5cb; stroke-width: 0.6; stroke-linecap: round"/>
   </g>
   <g id="text_12">
    <g id="patch_6">
     <path d="M 467.694295 73.274552 
L 555.423202 73.274552 
Q 556.773202 73.274552 556.773202 71.924552 
L 556.773202 63.214239 
Q 556.773202 61.864239 555.423202 61.864239 
L 467.694295 61.864239 
Q 466.344295 61.864239 466.344295 63.214239 
L 466.344295 71.924552 
Q 466.344295 73.274552 467.694295 73.274552 
z
" style="fill: #f4f1ea; opacity: 0.86"/>
    </g>
    <text style="font-size: 9px; font-family: 'DejaVu Sans'; text-anchor: start; fill: #1f1f1c" x="467.694295" y="70.052833" transform="rotate(-0 467.694295 70.052833)">Anthropic Balanced</text>
   </g>
   <g id="patch_7">
    <path d="M 603.814688 54.457829 
Q 599.548792 53.839002 595.282895 53.220175 
" style="fill: none; stroke: #d9d5cb; stroke-width: 0.6; stroke-linecap: round"/>
   </g>
   <g id="text_13">
    <g id="patch_8">
     <path d="M 603.304545 66.154906 
L 686.935639 66.154906 
Q 688.285639 66.154906 688.285639 64.804906 
L 688.285639 56.094594 
Q 688.285639 54.744594 686.935639 54.744594 
L 603.304545 54.744594 
Q 601.954545 54.744594 601.954545 56.094594 
L 601.954545 64.804906 
Q 601.954545 66.154906 603.304545 66.154906 
z
" style="fill: #f4f1ea; opacity: 0.86"/>
    </g>
    <text style="font-size: 9px; font-family: 'DejaVu Sans'; text-anchor: start; fill: #1f1f1c" x="603.304545" y="62.933187" transform="rotate(-0 603.304545 62.933187)">Anthropic Flagship</text>
   </g>
   <g id="patch_9">
    <path d="M 463.669571 235.280467 
Q 477.120476 226.469537 490.571381 217.658606 
" style="fill: none; stroke: #d9d5cb; stroke-width: 0.6; stroke-linecap: round"/>
   </g>
   <g id="text_14">
    <g id="patch_10">
     <path d="M 410.242062 247.785956 
L 496.334093 247.785956 
Q 497.684093 247.785956 497.684093 246.435956 
L 497.684093 237.725643 
Q 497.684093 236.375643 496.334093 236.375643 
L 410.242062 236.375643 
Q 408.892062 236.375643 408.892062 237.725643 
L 408.892062 246.435956 
Q 408.892062 247.785956 410.242062 247.785956 
z
" style="fill: #f4f1ea; opacity: 0.86"/>
    </g>
    <text style="font-size: 9px; font-family: 'DejaVu Sans'; text-anchor: start; fill: #1f1f1c" x="410.242062" y="244.564237" transform="rotate(-0 410.242062 244.564237)">DeepSeek Flagship</text>
   </g>
   <g id="patch_11">
    <path d="M 590.485229 95.76767 
Q 581.036534 97.746567 571.587839 99.725465 
" style="fill: none; stroke: #d9d5cb; stroke-width: 0.6; stroke-linecap: round"/>
   </g>
   <g id="text_15">
    <g id="patch_12">
     <path d="M 583.630127 95.357199 
L 655.741221 95.357199 
Q 657.091221 95.357199 657.091221 94.007199 
L 657.091221 85.296887 
Q 657.091221 83.946887 655.741221 83.946887 
L 583.630127 83.946887 
Q 582.280127 83.946887 582.280127 85.296887 
L 582.280127 94.007199 
Q 582.280127 95.357199 583.630127 95.357199 
z
" style="fill: #f4f1ea; opacity: 0.86"/>
    </g>
    <text style="font-size: 9px; font-family: 'DejaVu Sans'; text-anchor: start; fill: #1f1f1c" x="583.630127" y="92.13548" transform="rotate(-0 583.630127 92.13548)">Google Flagship</text>
   </g>
   <g id="patch_13">
    <path d="M 522.19164 191.125124 
Q 506.967822 182.227301 491.744004 173.329478 
" style="fill: none; stroke: #d9d5cb; stroke-width: 0.6; stroke-linecap: round"/>
   </g>
   <g id="text_16">
    <g id="patch_14">
     <path d="M 504.01996 203.543549 
L 563.335585 203.543549 
Q 564.685585 203.543549 564.685585 202.193549 
L 564.685585 193.483237 
Q 564.685585 192.133237 563.335585 192.133237 
L 504.01996 192.133237 
Q 502.66996 192.133237 502.66996 193.483237 
L 502.66996 202.193549 
Q 502.66996 203.543549 504.01996 203.543549 
z
" style="fill: #f4f1ea; opacity: 0.86"/>
    </g>
    <text style="font-size: 9px; font-family: 'DejaVu Sans'; text-anchor: start; fill: #1f1f1c" x="504.01996" y="200.321831" transform="rotate(-0 504.01996 200.321831)">Google Value</text>
   </g>
   <g id="patch_15">
    <path d="M 406.417669 112.719706 
Q 431.721164 117.721471 457.02466 122.723236 
" style="fill: none; stroke: #d9d5cb; stroke-width: 0.6; stroke-linecap: round"/>
   </g>
   <g id="text_17">
    <g id="patch_16">
     <path d="M 338.985027 112.332463 
L 412.208464 112.332463 
Q 413.558464 112.332463 413.558464 110.982463 
L 413.558464 102.27215 
Q 413.558464 100.92215 412.208464 100.92215 
L 338.985027 100.92215 
Q 337.635027 100.92215 337.635027 102.27215 
L 337.635027 110.982463 
Q 337.635027 112.332463 338.985027 112.332463 
z
" style="fill: #f4f1ea; opacity: 0.86"/>
    </g>
    <text style="font-size: 9px; font-family: 'DejaVu Sans'; text-anchor: start; fill: #1f1f1c" x="338.985027" y="109.110744" transform="rotate(-0 338.985027 109.110744)">OpenAI Flagship</text>
   </g>
   <g id="text_18">
    <text style="font-size: 18px; font-family: 'DejaVu Sans'; text-anchor: start; fill: #1f1f1c" x="87.3" y="22.317187" transform="rotate(-0 87.3 22.317187)">Price and quality across routed API products</text>
   </g>
   <g id="legend_1">
    <g id="PathCollection_3">
     <defs>
      <path id="m9cdb42be1c" d="M 0 5.405193 
C 1.433474 5.405193 2.80843 4.835668 3.822049 3.822049 
C 4.835668 2.80843 5.405193 1.433474 5.405193 0 
C 5.405193 -1.433474 4.835668 -2.80843 3.822049 -3.822049 
C 2.80843 -4.835668 1.433474 -5.405193 0 -5.405193 
C -1.433474 -5.405193 -2.80843 -4.835668 -3.822049 -3.822049 
C -4.835668 -2.80843 -5.405193 -1.433474 -5.405193 0 
C -5.405193 1.433474 -4.835668 2.80843 -3.822049 3.822049 
C -2.80843 4.835668 -1.433474 5.405193 0 5.405193 
z
" style="stroke: #f4f1ea; stroke-opacity: 0.78; stroke-width: 0.8"/>
     </defs>
     <g>
      <use xlink:href="#m9cdb42be1c" x="102.7" y="47.256929" style="fill: #2f7f73; fill-opacity: 0.78; stroke: #f4f1ea; stroke-opacity: 0.78; stroke-width: 0.8"/>
     </g>
    </g>
    <g id="text_19">
     <text style="font-size: 11px; font-family: 'DejaVu Sans'; text-anchor: start; fill: #696762" x="117" y="50.144429" transform="rotate(-0 117 50.144429)">OSS</text>
    </g>
    <g id="PathCollection_4">
     <defs>
      <path id="m73092e927e" d="M 0 6.639945 
C 1.760934 6.639945 3.449982 5.940318 4.69515 4.69515 
C 5.940318 3.449982 6.639945 1.760934 6.639945 0 
C 6.639945 -1.760934 5.940318 -3.449982 4.69515 -4.69515 
C 3.449982 -5.940318 1.760934 -6.639945 0 -6.639945 
C -1.760934 -6.639945 -3.449982 -5.940318 -4.69515 -4.69515 
C -5.940318 -3.449982 -6.639945 -1.760934 -6.639945 0 
C -6.639945 1.760934 -5.940318 3.449982 -4.69515 4.69515 
C -3.449982 5.940318 -1.760934 6.639945 0 6.639945 
z
" style="stroke: #f4f1ea; stroke-opacity: 0.78; stroke-width: 0.8"/>
     </defs>
     <g>
      <use xlink:href="#m73092e927e" x="161.625625" y="47.256929" style="fill: #c96f4d; fill-opacity: 0.78; stroke: #f4f1ea; stroke-opacity: 0.78; stroke-width: 0.8"/>
     </g>
    </g>
    <g id="text_20">
     <text style="font-size: 11px; font-family: 'DejaVu Sans'; text-anchor: start; fill: #696762" x="175.925625" y="50.144429" transform="rotate(-0 175.925625 50.144429)">Proprietary</text>
    </g>
   </g>
  </g>
  <g id="text_21">
   <text style="font-size: 10px; font-family: 'DejaVu Sans'; text-anchor: start; fill: #696762" x="8.64" y="414.157187" transform="rotate(-0 8.64 414.157187)">Provider-tier products are token-weighted across the final sample window; marker size reflects routed token volume.</text>
  </g>
 </g>
 <defs>
  <clipPath id="pe3d11f877a">
   <rect x="87.3" y="38.317187" width="530.1" height="321.552"/>
  </clipPath>
 </defs>
</svg>
